<svg xmlns="http://www.w3.org/2000/svg" viewBox="0 0 500 500"><path d="M33.49,353.37V132.24A25,25,0,0,1,46,110.59L212.5,14.45A25,25,0,0,1,250,36.1h0a25,25,0,0,1-12.5,21.65L89.74,143.06a12.51,12.51,0,0,0-6.25,10.83V331.72a12.51,12.51,0,0,0,6.25,10.82l154,88.92a12.51,12.51,0,0,0,12.5,0l154-88.92a12.51,12.51,0,0,0,6.25-10.82V153.89a12.51,12.51,0,0,0-6.25-10.83L336,100.2V298.91a35,35,0,0,1-35,35H179.36a35,35,0,0,1-35-35V239.47a25,25,0,0,1,25-25h0a25,25,0,0,1,25,25v37.47a7,7,0,0,0,7,7H279a7,7,0,0,0,7-7V71.27c0-25.63,27.75-41.65,50-28.84l118,68.16a25,25,0,0,1,12.5,21.65V353.37A25,25,0,0,1,454,375L262.5,485.59a25,25,0,0,1-25,0L46,375A25,25,0,0,1,33.49,353.37Z" style="fill:#ffffff"/><rect width="500" height="500" style="fill:none"/></svg>